<mxfile host="app.diagrams.net" modified="2024-04-23T04:41:19.829Z" agent="Mozilla/5.0 (Windows NT 10.0; Win64; x64) AppleWebKit/537.36 (KHTML, like Gecko) Chrome/124.0.0.0 Safari/537.36 Edg/124.0.0.0" etag="G-ePDebvtqK1vJiSN82N" version="24.0.8" type="device">
  <diagram name="Page-1" id="CFpZglOBAtVq6W_yrS_q">
    <mxGraphModel dx="424" dy="459" grid="1" gridSize="10" guides="1" tooltips="1" connect="1" arrows="1" fold="1" page="1" pageScale="1" pageWidth="827" pageHeight="1169" math="0" shadow="0">
      <root>
        <mxCell id="0" />
        <mxCell id="1" parent="0" />
        <mxCell id="53WiCXzm5NEHL9y_vGsJ-48" value="" style="rounded=0;orthogonalLoop=1;jettySize=auto;html=1;dashed=1;dashPattern=1 4;endArrow=none;endFill=0;fillColor=#d5e8d4;strokeColor=#82b366;" parent="1" source="53WiCXzm5NEHL9y_vGsJ-3" target="53WiCXzm5NEHL9y_vGsJ-46" edge="1">
          <mxGeometry relative="1" as="geometry" />
        </mxCell>
        <mxCell id="53WiCXzm5NEHL9y_vGsJ-3" value="Active directory&lt;div&gt;Ip:192.168.10.7&lt;/div&gt;&lt;div&gt;Splunk universal forwarder&lt;/div&gt;" style="sketch=0;outlineConnect=0;fontColor=#232F3E;gradientColor=none;fillColor=#232F3D;strokeColor=none;dashed=0;verticalLabelPosition=bottom;verticalAlign=top;align=center;html=1;fontSize=12;fontStyle=0;aspect=fixed;pointerEvents=1;shape=mxgraph.aws4.traditional_server;" parent="1" vertex="1">
          <mxGeometry x="80" y="317.5" width="30" height="52" as="geometry" />
        </mxCell>
        <mxCell id="53WiCXzm5NEHL9y_vGsJ-43" style="rounded=0;orthogonalLoop=1;jettySize=auto;html=1;dashed=1;dashPattern=1 4;endArrow=none;endFill=0;fillColor=#d5e8d4;strokeColor=#82b366;" parent="1" source="53WiCXzm5NEHL9y_vGsJ-6" edge="1">
          <mxGeometry relative="1" as="geometry">
            <mxPoint x="110" y="247.98529411764707" as="targetPoint" />
          </mxGeometry>
        </mxCell>
        <mxCell id="53WiCXzm5NEHL9y_vGsJ-6" value="Windows 10&lt;div&gt;Ip: DHCP&lt;/div&gt;&lt;div&gt;Splunk universal forwarder&lt;/div&gt;&lt;div&gt;Sysmon&lt;/div&gt;&lt;div&gt;Atomic Red Team&lt;/div&gt;" style="verticalLabelPosition=bottom;html=1;verticalAlign=top;align=center;strokeColor=none;fillColor=#00BEF2;shape=mxgraph.azure.computer;pointerEvents=1;" parent="1" vertex="1">
          <mxGeometry x="240" y="370" width="50" height="45" as="geometry" />
        </mxCell>
        <mxCell id="53WiCXzm5NEHL9y_vGsJ-37" value="" style="edgeStyle=orthogonalEdgeStyle;rounded=0;orthogonalLoop=1;jettySize=auto;html=1;" parent="1" source="53WiCXzm5NEHL9y_vGsJ-7" target="53WiCXzm5NEHL9y_vGsJ-34" edge="1">
          <mxGeometry relative="1" as="geometry" />
        </mxCell>
        <mxCell id="53WiCXzm5NEHL9y_vGsJ-7" value="Kali linux&lt;div&gt;Ip: 192.168.10.250&lt;/div&gt;" style="verticalLabelPosition=bottom;html=1;verticalAlign=top;align=center;strokeColor=#b85450;fillColor=#f8cecc;shape=mxgraph.azure.computer;pointerEvents=1;" parent="1" vertex="1">
          <mxGeometry x="414" y="272.5" width="50" height="45" as="geometry" />
        </mxCell>
        <mxCell id="53WiCXzm5NEHL9y_vGsJ-8" value="INTERNET" style="ellipse;shape=cloud;whiteSpace=wrap;html=1;" parent="1" vertex="1">
          <mxGeometry x="205" y="20" width="120" height="80" as="geometry" />
        </mxCell>
        <mxCell id="53WiCXzm5NEHL9y_vGsJ-24" value="" style="sketch=0;points=[[0.5,0,0],[1,0.5,0],[0.5,1,0],[0,0.5,0],[0.145,0.145,0],[0.8555,0.145,0],[0.855,0.8555,0],[0.145,0.855,0]];verticalLabelPosition=bottom;html=1;verticalAlign=top;aspect=fixed;align=center;pointerEvents=1;shape=mxgraph.cisco19.rect;prIcon=router;fillColor=#FAFAFA;strokeColor=#005073;" parent="1" vertex="1">
          <mxGeometry x="240" y="150" width="50" height="50" as="geometry" />
        </mxCell>
        <mxCell id="53WiCXzm5NEHL9y_vGsJ-32" style="edgeStyle=orthogonalEdgeStyle;rounded=0;orthogonalLoop=1;jettySize=auto;html=1;entryX=0;entryY=0.75;entryDx=0;entryDy=0;entryPerimeter=0;" parent="1" edge="1">
          <mxGeometry relative="1" as="geometry">
            <mxPoint x="110" y="234" as="sourcePoint" />
            <mxPoint x="240" y="297.5" as="targetPoint" />
            <Array as="points">
              <mxPoint x="175" y="234" />
              <mxPoint x="175" y="298" />
            </Array>
          </mxGeometry>
        </mxCell>
        <mxCell id="53WiCXzm5NEHL9y_vGsJ-34" value="" style="sketch=0;points=[[0.015,0.015,0],[0.985,0.015,0],[0.985,0.985,0],[0.015,0.985,0],[0.25,0,0],[0.5,0,0],[0.75,0,0],[1,0.25,0],[1,0.5,0],[1,0.75,0],[0.75,1,0],[0.5,1,0],[0.25,1,0],[0,0.75,0],[0,0.5,0],[0,0.25,0]];verticalLabelPosition=bottom;html=1;verticalAlign=top;aspect=fixed;align=center;pointerEvents=1;shape=mxgraph.cisco19.rect;prIcon=l2_switch;fillColor=#FAFAFA;strokeColor=default;" parent="1" vertex="1">
          <mxGeometry x="240" y="270" width="50" height="50" as="geometry" />
        </mxCell>
        <mxCell id="53WiCXzm5NEHL9y_vGsJ-35" style="edgeStyle=orthogonalEdgeStyle;rounded=0;orthogonalLoop=1;jettySize=auto;html=1;entryX=0.227;entryY=0.533;entryDx=0;entryDy=0;entryPerimeter=0;" parent="1" source="53WiCXzm5NEHL9y_vGsJ-3" target="53WiCXzm5NEHL9y_vGsJ-34" edge="1">
          <mxGeometry relative="1" as="geometry" />
        </mxCell>
        <mxCell id="53WiCXzm5NEHL9y_vGsJ-36" style="edgeStyle=orthogonalEdgeStyle;rounded=0;orthogonalLoop=1;jettySize=auto;html=1;entryX=0.5;entryY=1;entryDx=0;entryDy=0;entryPerimeter=0;" parent="1" source="53WiCXzm5NEHL9y_vGsJ-6" target="53WiCXzm5NEHL9y_vGsJ-34" edge="1">
          <mxGeometry relative="1" as="geometry" />
        </mxCell>
        <mxCell id="53WiCXzm5NEHL9y_vGsJ-39" style="edgeStyle=orthogonalEdgeStyle;rounded=0;orthogonalLoop=1;jettySize=auto;html=1;entryX=0.5;entryY=1;entryDx=0;entryDy=0;entryPerimeter=0;" parent="1" source="53WiCXzm5NEHL9y_vGsJ-34" target="53WiCXzm5NEHL9y_vGsJ-24" edge="1">
          <mxGeometry relative="1" as="geometry" />
        </mxCell>
        <mxCell id="53WiCXzm5NEHL9y_vGsJ-40" style="edgeStyle=orthogonalEdgeStyle;rounded=0;orthogonalLoop=1;jettySize=auto;html=1;entryX=0.497;entryY=0.908;entryDx=0;entryDy=0;entryPerimeter=0;" parent="1" source="53WiCXzm5NEHL9y_vGsJ-24" target="53WiCXzm5NEHL9y_vGsJ-8" edge="1">
          <mxGeometry relative="1" as="geometry" />
        </mxCell>
        <mxCell id="53WiCXzm5NEHL9y_vGsJ-41" value="Domain: Leo" style="text;html=1;align=center;verticalAlign=middle;resizable=0;points=[];autosize=1;strokeColor=none;fillColor=none;fontStyle=4" parent="1" vertex="1">
          <mxGeometry x="830" y="20" width="90" height="30" as="geometry" />
        </mxCell>
        <mxCell id="53WiCXzm5NEHL9y_vGsJ-42" value="Domain: Myleo&lt;div&gt;Network:192.168.10.0/24&lt;/div&gt;&lt;div&gt;Splunk server:192.168.10.10&lt;/div&gt;&lt;div&gt;Active directory:192.168.10.7&lt;/div&gt;&lt;div&gt;Attacker:192.168.10.250&lt;/div&gt;" style="text;html=1;align=center;verticalAlign=middle;resizable=0;points=[];autosize=1;strokeColor=none;fillColor=none;" parent="1" vertex="1">
          <mxGeometry x="25" y="20" width="180" height="90" as="geometry" />
        </mxCell>
        <mxCell id="53WiCXzm5NEHL9y_vGsJ-46" value="Splunk server&lt;div&gt;Ip:192.168.10.10&lt;/div&gt;" style="sketch=0;outlineConnect=0;fontColor=#232F3E;gradientColor=none;fillColor=#232F3D;strokeColor=none;dashed=0;verticalLabelPosition=bottom;verticalAlign=top;align=center;html=1;fontSize=12;fontStyle=0;aspect=fixed;pointerEvents=1;shape=mxgraph.aws4.traditional_server;" parent="1" vertex="1">
          <mxGeometry x="72.5" y="160" width="45" height="78" as="geometry" />
        </mxCell>
      </root>
    </mxGraphModel>
  </diagram>
</mxfile>
